<mxfile host="app.diagrams.net" modified="2024-05-16T17:05:39.650Z" agent="Mozilla/5.0 (Windows NT 10.0; Win64; x64) AppleWebKit/537.36 (KHTML, like Gecko) Chrome/124.0.0.0 Safari/537.36" etag="ePg21tusdNYSwDzdt_Xc" version="24.4.0" type="device">
  <diagram id="C5RBs43oDa-KdzZeNtuy" name="Page-1">
    <mxGraphModel dx="1443" dy="2258" grid="0" gridSize="10" guides="1" tooltips="1" connect="1" arrows="1" fold="1" page="1" pageScale="1" pageWidth="827" pageHeight="1169" math="0" shadow="0">
      <root>
        <mxCell id="WIyWlLk6GJQsqaUBKTNV-0" />
        <mxCell id="WIyWlLk6GJQsqaUBKTNV-1" parent="WIyWlLk6GJQsqaUBKTNV-0" />
        <mxCell id="5QUS0Img_BFSJ7bUPHIu-18" style="edgeStyle=orthogonalEdgeStyle;rounded=0;orthogonalLoop=1;jettySize=auto;html=1;entryX=0.5;entryY=0;entryDx=0;entryDy=0;endArrow=diamondThin;endFill=0;endSize=11;" edge="1" parent="WIyWlLk6GJQsqaUBKTNV-1" source="5QUS0Img_BFSJ7bUPHIu-0" target="5QUS0Img_BFSJ7bUPHIu-6">
          <mxGeometry relative="1" as="geometry" />
        </mxCell>
        <mxCell id="5QUS0Img_BFSJ7bUPHIu-22" value="*" style="edgeLabel;html=1;align=center;verticalAlign=middle;resizable=0;points=[];fontSize=12;fontStyle=1" vertex="1" connectable="0" parent="5QUS0Img_BFSJ7bUPHIu-18">
          <mxGeometry x="-0.8124" y="1" relative="1" as="geometry">
            <mxPoint x="9" y="10" as="offset" />
          </mxGeometry>
        </mxCell>
        <mxCell id="5QUS0Img_BFSJ7bUPHIu-23" value="1" style="edgeLabel;html=1;align=center;verticalAlign=middle;resizable=0;points=[];fontSize=12;" vertex="1" connectable="0" parent="5QUS0Img_BFSJ7bUPHIu-18">
          <mxGeometry x="0.7462" y="1" relative="1" as="geometry">
            <mxPoint x="9" y="-8" as="offset" />
          </mxGeometry>
        </mxCell>
        <mxCell id="5QUS0Img_BFSJ7bUPHIu-0" value="&lt;p style=&quot;margin:0px;margin-top:4px;text-align:center;&quot;&gt;&lt;b&gt;Expense&lt;/b&gt;&lt;/p&gt;&lt;hr size=&quot;1&quot; style=&quot;border-style:solid;&quot;&gt;&lt;p style=&quot;margin:0px;margin-left:4px;&quot;&gt;- expenseId : Number&lt;span style=&quot;background-color: initial;&quot;&gt;&amp;nbsp;&lt;/span&gt;&lt;/p&gt;&lt;p style=&quot;margin:0px;margin-left:4px;&quot;&gt;- name : String&lt;/p&gt;&lt;p style=&quot;margin:0px;margin-left:4px;&quot;&gt;- value : Float&lt;/p&gt;&lt;p style=&quot;margin:0px;margin-left:4px;&quot;&gt;- date : DateTime&lt;/p&gt;&lt;p style=&quot;margin:0px;margin-left:4px;&quot;&gt;- userId : Number&lt;/p&gt;&lt;p style=&quot;margin:0px;margin-left:4px;&quot;&gt;- category : ExpenseCategory&lt;/p&gt;&lt;p style=&quot;margin:0px;margin-left:4px;&quot;&gt;- currency : Currency&lt;/p&gt;&lt;hr size=&quot;1&quot; style=&quot;border-style:solid;&quot;&gt;&lt;p style=&quot;margin:0px;margin-left:4px;&quot;&gt;+ createExpense(userId,name,value,currency,category) : Expense&lt;/p&gt;&lt;p style=&quot;margin:0px;margin-left:4px;&quot;&gt;+ getExpense(expenseId) : Expense&lt;/p&gt;&lt;p style=&quot;margin:0px;margin-left:4px;&quot;&gt;+ getExpenseCategory() : ExpenseCategory&lt;/p&gt;&lt;p style=&quot;margin:0px;margin-left:4px;&quot;&gt;+ deleteExpense(expenseId) : void&lt;/p&gt;&lt;p style=&quot;margin:0px;margin-left:4px;&quot;&gt;&lt;br&gt;&lt;/p&gt;" style="verticalAlign=top;align=left;overflow=fill;html=1;whiteSpace=wrap;rounded=0;" vertex="1" parent="WIyWlLk6GJQsqaUBKTNV-1">
          <mxGeometry x="-50" y="40" width="370" height="210" as="geometry" />
        </mxCell>
        <mxCell id="5QUS0Img_BFSJ7bUPHIu-28" value="" style="edgeStyle=orthogonalEdgeStyle;rounded=0;orthogonalLoop=1;jettySize=auto;html=1;" edge="1" parent="WIyWlLk6GJQsqaUBKTNV-1" source="5QUS0Img_BFSJ7bUPHIu-6" target="5QUS0Img_BFSJ7bUPHIu-27">
          <mxGeometry relative="1" as="geometry" />
        </mxCell>
        <mxCell id="5QUS0Img_BFSJ7bUPHIu-59" value="1" style="edgeLabel;html=1;align=center;verticalAlign=middle;resizable=0;points=[];fontSize=12;" vertex="1" connectable="0" parent="5QUS0Img_BFSJ7bUPHIu-28">
          <mxGeometry x="0.5429" y="-2" relative="1" as="geometry">
            <mxPoint y="-7" as="offset" />
          </mxGeometry>
        </mxCell>
        <mxCell id="5QUS0Img_BFSJ7bUPHIu-60" value="*" style="edgeLabel;html=1;align=center;verticalAlign=middle;resizable=0;points=[];fontSize=12;fontStyle=1" vertex="1" connectable="0" parent="5QUS0Img_BFSJ7bUPHIu-28">
          <mxGeometry x="-0.6136" y="1" relative="1" as="geometry">
            <mxPoint x="3" y="-11" as="offset" />
          </mxGeometry>
        </mxCell>
        <mxCell id="5QUS0Img_BFSJ7bUPHIu-6" value="&lt;p style=&quot;margin:0px;margin-top:4px;text-align:center;&quot;&gt;&lt;b&gt;User&lt;/b&gt;&lt;/p&gt;&lt;hr size=&quot;1&quot; style=&quot;border-style:solid;&quot;&gt;&lt;p style=&quot;margin:0px;margin-left:4px;&quot;&gt;- userId: Number&lt;/p&gt;&lt;p style=&quot;margin:0px;margin-left:4px;&quot;&gt;- name : String&lt;/p&gt;&lt;p style=&quot;margin:0px;margin-left:4px;&quot;&gt;- email : String&lt;/p&gt;&lt;p style=&quot;margin:0px;margin-left:4px;&quot;&gt;- image : String&lt;/p&gt;&lt;p style=&quot;margin:0px;margin-left:4px;&quot;&gt;- accounts : Account[]&lt;/p&gt;&lt;p style=&quot;margin:0px;margin-left:4px;&quot;&gt;- sessions : Session[]&lt;/p&gt;&lt;p style=&quot;margin:0px;margin-left:4px;&quot;&gt;- expenses : Expense[]&lt;/p&gt;&lt;p style=&quot;margin:0px;margin-left:4px;&quot;&gt;- balances : Balance[]&lt;/p&gt;&lt;p style=&quot;margin:0px;margin-left:4px;&quot;&gt;&lt;br&gt;&lt;/p&gt;" style="verticalAlign=top;align=left;overflow=fill;html=1;whiteSpace=wrap;" vertex="1" parent="WIyWlLk6GJQsqaUBKTNV-1">
          <mxGeometry x="160" y="330" width="160" height="170" as="geometry" />
        </mxCell>
        <mxCell id="5QUS0Img_BFSJ7bUPHIu-15" style="edgeStyle=orthogonalEdgeStyle;rounded=0;orthogonalLoop=1;jettySize=auto;html=1;entryX=1;entryY=0.25;entryDx=0;entryDy=0;endArrow=diamondThin;endFill=1;endSize=11;" edge="1" parent="WIyWlLk6GJQsqaUBKTNV-1" source="5QUS0Img_BFSJ7bUPHIu-14" target="5QUS0Img_BFSJ7bUPHIu-0">
          <mxGeometry relative="1" as="geometry" />
        </mxCell>
        <mxCell id="5QUS0Img_BFSJ7bUPHIu-19" value="1" style="edgeLabel;html=1;align=center;verticalAlign=middle;resizable=0;points=[];fontStyle=0;fontSize=12;" vertex="1" connectable="0" parent="5QUS0Img_BFSJ7bUPHIu-15">
          <mxGeometry x="-0.2477" y="-3" relative="1" as="geometry">
            <mxPoint x="25" y="-12" as="offset" />
          </mxGeometry>
        </mxCell>
        <mxCell id="5QUS0Img_BFSJ7bUPHIu-21" value="*" style="edgeLabel;html=1;align=center;verticalAlign=middle;resizable=0;points=[];fontStyle=1;fontSize=12;" vertex="1" connectable="0" parent="5QUS0Img_BFSJ7bUPHIu-15">
          <mxGeometry x="0.7638" y="-1" relative="1" as="geometry">
            <mxPoint x="6" y="-14" as="offset" />
          </mxGeometry>
        </mxCell>
        <mxCell id="5QUS0Img_BFSJ7bUPHIu-14" value="&lt;p style=&quot;margin:0px;margin-top:4px;text-align:center;&quot;&gt;&lt;b&gt;ExpenseCategory&lt;/b&gt;&lt;/p&gt;&lt;hr size=&quot;1&quot; style=&quot;border-style:solid;&quot;&gt;&lt;p style=&quot;margin:0px;margin-left:4px;&quot;&gt;- categoryId: Number&lt;/p&gt;&lt;p style=&quot;margin:0px;margin-left:4px;&quot;&gt;- name : String&lt;/p&gt;&lt;p style=&quot;margin:0px;margin-left:4px;&quot;&gt;&amp;nbsp;&lt;/p&gt;&lt;hr size=&quot;1&quot; style=&quot;border-style:solid;&quot;&gt;&lt;p style=&quot;margin:0px;margin-left:4px;&quot;&gt;+ createExpenseCategory(name) : ExpenseCategory&lt;/p&gt;&lt;p style=&quot;margin:0px;margin-left:4px;&quot;&gt;+ getExpenseCategory() : ExpenseCategory&lt;/p&gt;" style="verticalAlign=top;align=left;overflow=fill;html=1;whiteSpace=wrap;rounded=0;" vertex="1" parent="WIyWlLk6GJQsqaUBKTNV-1">
          <mxGeometry x="450" y="-50" width="290" height="130" as="geometry" />
        </mxCell>
        <mxCell id="5QUS0Img_BFSJ7bUPHIu-24" style="edgeStyle=orthogonalEdgeStyle;rounded=0;orthogonalLoop=1;jettySize=auto;html=1;entryX=1;entryY=0.5;entryDx=0;entryDy=0;endSize=11;endArrow=diamondThin;endFill=0;" edge="1" parent="WIyWlLk6GJQsqaUBKTNV-1" source="5QUS0Img_BFSJ7bUPHIu-17" target="5QUS0Img_BFSJ7bUPHIu-6">
          <mxGeometry relative="1" as="geometry" />
        </mxCell>
        <mxCell id="5QUS0Img_BFSJ7bUPHIu-25" value="*" style="edgeLabel;html=1;align=center;verticalAlign=middle;resizable=0;points=[];fontSize=12;fontStyle=1" vertex="1" connectable="0" parent="5QUS0Img_BFSJ7bUPHIu-24">
          <mxGeometry x="-0.8283" y="-2" relative="1" as="geometry">
            <mxPoint x="-12" y="-8" as="offset" />
          </mxGeometry>
        </mxCell>
        <mxCell id="5QUS0Img_BFSJ7bUPHIu-26" value="1" style="edgeLabel;html=1;align=center;verticalAlign=middle;resizable=0;points=[];fontSize=12;" vertex="1" connectable="0" parent="5QUS0Img_BFSJ7bUPHIu-24">
          <mxGeometry x="0.8269" y="1" relative="1" as="geometry">
            <mxPoint x="11" y="-11" as="offset" />
          </mxGeometry>
        </mxCell>
        <mxCell id="5QUS0Img_BFSJ7bUPHIu-17" value="&lt;p style=&quot;margin:0px;margin-top:4px;text-align:center;&quot;&gt;&lt;b&gt;Balance&lt;/b&gt;&lt;/p&gt;&lt;hr size=&quot;1&quot; style=&quot;border-style:solid;&quot;&gt;&lt;p style=&quot;margin:0px;margin-left:4px;&quot;&gt;- balanceId: Number&lt;/p&gt;&lt;p style=&quot;margin:0px;margin-left:4px;&quot;&gt;- name : String&lt;/p&gt;&lt;p style=&quot;margin:0px;margin-left:4px;&quot;&gt;- value : Float&lt;/p&gt;&lt;p style=&quot;margin:0px;margin-left:4px;&quot;&gt;- date : DateTime&lt;/p&gt;&lt;p style=&quot;margin:0px;margin-left:4px;&quot;&gt;- userId : Number&lt;/p&gt;&lt;p style=&quot;margin:0px;margin-left:4px;&quot;&gt;- currency : Currency&lt;br&gt;&lt;/p&gt;&lt;hr size=&quot;1&quot; style=&quot;border-style:solid;&quot;&gt;&lt;p style=&quot;margin:0px;margin-left:4px;&quot;&gt;+ createBalance(userId,name,value,currency): Balance&lt;/p&gt;&lt;p style=&quot;margin:0px;margin-left:4px;&quot;&gt;+ getBalance(balanceId) : Balance&lt;/p&gt;&lt;p style=&quot;margin:0px;margin-left:4px;&quot;&gt;+ deleteBalance(balanceId) : void&lt;/p&gt;" style="verticalAlign=top;align=left;overflow=fill;html=1;whiteSpace=wrap;rounded=0;" vertex="1" parent="WIyWlLk6GJQsqaUBKTNV-1">
          <mxGeometry x="420" y="335" width="310" height="215" as="geometry" />
        </mxCell>
        <mxCell id="5QUS0Img_BFSJ7bUPHIu-27" value="&lt;p style=&quot;margin: 4px 0px 0px; text-align: center; line-height: 70%;&quot;&gt;&amp;lt;&amp;lt;service&amp;gt;&amp;gt;&lt;/p&gt;&lt;p style=&quot;margin: 4px 0px 0px; text-align: center; line-height: 70%;&quot;&gt;&lt;b&gt;GoogleAuthentication&lt;/b&gt;&lt;/p&gt;&lt;hr size=&quot;1&quot; style=&quot;border-style:solid;&quot;&gt;&lt;p style=&quot;margin: 0px 0px 0px 4px; line-height: 140%;&quot;&gt;+ Login(sessionId, userId): void&lt;/p&gt;&lt;p style=&quot;margin: 0px 0px 0px 4px; line-height: 140%;&quot;&gt;+ Logout(&lt;span style=&quot;background-color: initial;&quot;&gt;sessionId, userId&lt;/span&gt;&lt;span style=&quot;background-color: initial;&quot;&gt;): void&lt;/span&gt;&lt;/p&gt;" style="verticalAlign=top;align=left;overflow=fill;html=1;whiteSpace=wrap;" vertex="1" parent="WIyWlLk6GJQsqaUBKTNV-1">
          <mxGeometry x="-110" y="340" width="190" height="100" as="geometry" />
        </mxCell>
        <mxCell id="5QUS0Img_BFSJ7bUPHIu-41" style="edgeStyle=orthogonalEdgeStyle;rounded=0;orthogonalLoop=1;jettySize=auto;html=1;entryX=0.5;entryY=1;entryDx=0;entryDy=0;endArrow=diamondThin;endFill=1;endSize=11;" edge="1" parent="WIyWlLk6GJQsqaUBKTNV-1" source="5QUS0Img_BFSJ7bUPHIu-40" target="5QUS0Img_BFSJ7bUPHIu-6">
          <mxGeometry relative="1" as="geometry" />
        </mxCell>
        <mxCell id="5QUS0Img_BFSJ7bUPHIu-44" value="1..*" style="edgeLabel;html=1;align=center;verticalAlign=middle;resizable=0;points=[];fontSize=12;" vertex="1" connectable="0" parent="5QUS0Img_BFSJ7bUPHIu-41">
          <mxGeometry x="-0.7121" y="3" relative="1" as="geometry">
            <mxPoint x="-17" as="offset" />
          </mxGeometry>
        </mxCell>
        <mxCell id="5QUS0Img_BFSJ7bUPHIu-45" value="1" style="edgeLabel;html=1;align=center;verticalAlign=middle;resizable=0;points=[];fontSize=12;" vertex="1" connectable="0" parent="5QUS0Img_BFSJ7bUPHIu-41">
          <mxGeometry x="0.6328" y="2" relative="1" as="geometry">
            <mxPoint x="-18" as="offset" />
          </mxGeometry>
        </mxCell>
        <mxCell id="5QUS0Img_BFSJ7bUPHIu-56" value="" style="edgeStyle=orthogonalEdgeStyle;rounded=0;orthogonalLoop=1;jettySize=auto;html=1;" edge="1" parent="WIyWlLk6GJQsqaUBKTNV-1" source="5QUS0Img_BFSJ7bUPHIu-40" target="5QUS0Img_BFSJ7bUPHIu-54">
          <mxGeometry relative="1" as="geometry" />
        </mxCell>
        <mxCell id="5QUS0Img_BFSJ7bUPHIu-40" value="&lt;p style=&quot;margin:0px;margin-top:4px;text-align:center;&quot;&gt;&lt;b&gt;Account&lt;/b&gt;&lt;/p&gt;&lt;hr size=&quot;1&quot; style=&quot;border-style:solid;&quot;&gt;&lt;p style=&quot;margin:0px;margin-left:4px;&quot;&gt;- accountId : Number&lt;/p&gt;&lt;p style=&quot;margin:0px;margin-left:4px;&quot;&gt;- user : User&lt;/p&gt;&lt;p style=&quot;margin:0px;margin-left:4px;&quot;&gt;- type : String&lt;/p&gt;&lt;p style=&quot;margin:0px;margin-left:4px;&quot;&gt;- provider : String&lt;/p&gt;&lt;p style=&quot;margin:0px;margin-left:4px;&quot;&gt;- access_token : String&lt;/p&gt;&lt;p style=&quot;margin:0px;margin-left:4px;&quot;&gt;- expires_at : Int&lt;/p&gt;&lt;p style=&quot;margin:0px;margin-left:4px;&quot;&gt;- session_state : String&lt;/p&gt;&lt;p style=&quot;margin:0px;margin-left:4px;&quot;&gt;&lt;br&gt;&lt;/p&gt;" style="verticalAlign=top;align=left;overflow=fill;html=1;whiteSpace=wrap;" vertex="1" parent="WIyWlLk6GJQsqaUBKTNV-1">
          <mxGeometry x="120" y="620" width="240" height="150" as="geometry" />
        </mxCell>
        <mxCell id="5QUS0Img_BFSJ7bUPHIu-48" style="edgeStyle=orthogonalEdgeStyle;rounded=0;orthogonalLoop=1;jettySize=auto;html=1;endArrow=classic;endFill=1;endSize=6;entryX=0.5;entryY=1;entryDx=0;entryDy=0;" edge="1" parent="WIyWlLk6GJQsqaUBKTNV-1" source="5QUS0Img_BFSJ7bUPHIu-17" target="5QUS0Img_BFSJ7bUPHIu-46">
          <mxGeometry relative="1" as="geometry" />
        </mxCell>
        <mxCell id="5QUS0Img_BFSJ7bUPHIu-52" value="1" style="edgeLabel;html=1;align=center;verticalAlign=middle;resizable=0;points=[];fontSize=12;" vertex="1" connectable="0" parent="5QUS0Img_BFSJ7bUPHIu-48">
          <mxGeometry x="0.7996" relative="1" as="geometry">
            <mxPoint x="-20" as="offset" />
          </mxGeometry>
        </mxCell>
        <mxCell id="5QUS0Img_BFSJ7bUPHIu-53" value="1" style="edgeLabel;html=1;align=center;verticalAlign=middle;resizable=0;points=[];fontSize=12;" vertex="1" connectable="0" parent="5QUS0Img_BFSJ7bUPHIu-48">
          <mxGeometry x="-0.8312" y="4" relative="1" as="geometry">
            <mxPoint x="-24" y="-3" as="offset" />
          </mxGeometry>
        </mxCell>
        <mxCell id="5QUS0Img_BFSJ7bUPHIu-49" style="edgeStyle=orthogonalEdgeStyle;rounded=0;orthogonalLoop=1;jettySize=auto;html=1;endArrow=classic;endFill=1;endSize=6;exitX=1;exitY=0.75;exitDx=0;exitDy=0;" edge="1" parent="WIyWlLk6GJQsqaUBKTNV-1" source="5QUS0Img_BFSJ7bUPHIu-0" target="5QUS0Img_BFSJ7bUPHIu-46">
          <mxGeometry relative="1" as="geometry" />
        </mxCell>
        <mxCell id="5QUS0Img_BFSJ7bUPHIu-50" value="1" style="edgeLabel;html=1;align=center;verticalAlign=middle;resizable=0;points=[];fontSize=12;" vertex="1" connectable="0" parent="5QUS0Img_BFSJ7bUPHIu-49">
          <mxGeometry x="0.7844" relative="1" as="geometry">
            <mxPoint y="-15" as="offset" />
          </mxGeometry>
        </mxCell>
        <mxCell id="5QUS0Img_BFSJ7bUPHIu-51" value="1" style="edgeLabel;html=1;align=center;verticalAlign=middle;resizable=0;points=[];fontSize=12;" vertex="1" connectable="0" parent="5QUS0Img_BFSJ7bUPHIu-49">
          <mxGeometry x="-0.7808" y="-2" relative="1" as="geometry">
            <mxPoint y="-13" as="offset" />
          </mxGeometry>
        </mxCell>
        <mxCell id="5QUS0Img_BFSJ7bUPHIu-46" value="&lt;p style=&quot;margin:0px;margin-top:4px;text-align:center;&quot;&gt;&lt;b&gt;Currency&lt;/b&gt;&lt;/p&gt;&lt;hr size=&quot;1&quot; style=&quot;border-style:solid;&quot;&gt;&lt;p style=&quot;margin:0px;margin-left:4px;&quot;&gt;- currencyId : Number&lt;/p&gt;&lt;p style=&quot;margin:0px;margin-left:4px;&quot;&gt;- name : String&lt;/p&gt;&lt;p style=&quot;margin:0px;margin-left:4px;&quot;&gt;- conversion : Float&lt;/p&gt;&lt;p style=&quot;margin:0px;margin-left:4px;&quot;&gt;- symbol : Char&lt;/p&gt;&lt;hr size=&quot;1&quot; style=&quot;border-style:solid;&quot;&gt;&lt;p style=&quot;margin:0px;margin-left:4px;&quot;&gt;+ createCurrency(): Currency&lt;/p&gt;" style="verticalAlign=top;align=left;overflow=fill;html=1;whiteSpace=wrap;" vertex="1" parent="WIyWlLk6GJQsqaUBKTNV-1">
          <mxGeometry x="510" y="120" width="160" height="120" as="geometry" />
        </mxCell>
        <mxCell id="5QUS0Img_BFSJ7bUPHIu-54" value="&lt;p style=&quot;margin:0px;margin-top:4px;text-align:center;&quot;&gt;&lt;b&gt;Session&lt;/b&gt;&lt;/p&gt;&lt;hr size=&quot;1&quot; style=&quot;border-style:solid;&quot;&gt;&lt;p style=&quot;margin:0px;margin-left:4px;&quot;&gt;- sessionId : Number&lt;/p&gt;&lt;p style=&quot;margin:0px;margin-left:4px;&quot;&gt;- sessionToken : String&lt;/p&gt;&lt;p style=&quot;margin:0px;margin-left:4px;&quot;&gt;- userId : Number&lt;/p&gt;&lt;p style=&quot;margin:0px;margin-left:4px;&quot;&gt;- expires : DateTime&lt;/p&gt;&lt;hr size=&quot;1&quot; style=&quot;border-style:solid;&quot;&gt;&lt;p style=&quot;margin:0px;margin-left:4px;&quot;&gt;+ method(): Type&lt;/p&gt;" style="verticalAlign=top;align=left;overflow=fill;html=1;whiteSpace=wrap;" vertex="1" parent="WIyWlLk6GJQsqaUBKTNV-1">
          <mxGeometry x="-100" y="580" width="160" height="90" as="geometry" />
        </mxCell>
        <mxCell id="5QUS0Img_BFSJ7bUPHIu-55" style="edgeStyle=orthogonalEdgeStyle;rounded=0;orthogonalLoop=1;jettySize=auto;html=1;entryX=0.5;entryY=0;entryDx=0;entryDy=0;" edge="1" parent="WIyWlLk6GJQsqaUBKTNV-1" target="5QUS0Img_BFSJ7bUPHIu-54">
          <mxGeometry relative="1" as="geometry">
            <mxPoint x="160" y="470" as="sourcePoint" />
            <Array as="points">
              <mxPoint x="159" y="470" />
              <mxPoint x="-20" y="470" />
            </Array>
          </mxGeometry>
        </mxCell>
        <mxCell id="5QUS0Img_BFSJ7bUPHIu-57" value="1" style="edgeLabel;html=1;align=center;verticalAlign=middle;resizable=0;points=[];fontSize=12;" vertex="1" connectable="0" parent="5QUS0Img_BFSJ7bUPHIu-55">
          <mxGeometry x="-0.8345" y="1" relative="1" as="geometry">
            <mxPoint y="9" as="offset" />
          </mxGeometry>
        </mxCell>
        <mxCell id="5QUS0Img_BFSJ7bUPHIu-58" value="1..*" style="edgeLabel;html=1;align=center;verticalAlign=middle;resizable=0;points=[];fontSize=12;" vertex="1" connectable="0" parent="5QUS0Img_BFSJ7bUPHIu-55">
          <mxGeometry x="0.8569" y="2" relative="1" as="geometry">
            <mxPoint x="18" y="1" as="offset" />
          </mxGeometry>
        </mxCell>
      </root>
    </mxGraphModel>
  </diagram>
</mxfile>
